<svg width="91" height="75" viewBox="0 0 91 75" fill="none" xmlns="http://www.w3.org/2000/svg">
<g filter="url(#filter0_d_24_4031)">
<path d="M4.50007 14C4.50007 12.068 6.37695 10.5 8.59207 10.5H82.908C85.1685 10.5 87 12.0575 87 14V63C87 64.932 85.1231 66.5 82.908 66.5H8.59207C8.05223 66.4991 7.5179 66.4077 7.01977 66.2312C6.52164 66.0546 6.06951 65.7963 5.68931 65.4711C5.30912 65.1459 5.00835 64.7602 4.80427 64.3362C4.60019 63.9121 4.49682 63.458 4.50007 63V14ZM54 56C59.4701 56 64.7162 54.1563 68.5841 50.8744C72.452 47.5925 74.625 43.1413 74.625 38.5C74.625 33.8587 72.452 29.4075 68.5841 26.1256C64.7162 22.8437 59.4701 21 54 21C48.5299 21 43.2839 22.8437 39.416 26.1256C35.548 29.4075 33.375 33.8587 33.375 38.5C33.375 43.1413 35.548 47.5925 39.416 50.8744C43.2839 54.1563 48.5299 56 54 56ZM12.7501 17.5V24.5H25.1251V17.5H12.7501ZM12.7501 0H37.5V7H12.7501V0Z" fill="#F2F2E6"/>
</g>
<defs>
<filter id="filter0_d_24_4031" x="0.5" y="0" width="90.5" height="74.5" filterUnits="userSpaceOnUse" color-interpolation-filters="sRGB">
<feFlood flood-opacity="0" result="BackgroundImageFix"/>
<feColorMatrix in="SourceAlpha" type="matrix" values="0 0 0 0 0 0 0 0 0 0 0 0 0 0 0 0 0 0 127 0" result="hardAlpha"/>
<feOffset dy="4"/>
<feGaussianBlur stdDeviation="2"/>
<feComposite in2="hardAlpha" operator="out"/>
<feColorMatrix type="matrix" values="0 0 0 0 0 0 0 0 0 0 0 0 0 0 0 0 0 0 0.25 0"/>
<feBlend mode="normal" in2="BackgroundImageFix" result="effect1_dropShadow_24_4031"/>
<feBlend mode="normal" in="SourceGraphic" in2="effect1_dropShadow_24_4031" result="shape"/>
</filter>
</defs>
</svg>
