<svg width="88" height="66" viewBox="0 0 88 66" fill="none" xmlns="http://www.w3.org/2000/svg">
<g filter="url(#filter0_d_24_4032)">
<path d="M79.7143 11.7236L68.2857 17.7955V5.27273C68.2857 2.36449 65.7232 0 62.5714 0H9.71429C6.5625 0 4 2.36449 4 5.27273V52.7273C4 55.6355 6.5625 58 9.71429 58H62.5714C65.7232 58 68.2857 55.6355 68.2857 52.7273V40.2045L79.7143 46.2764C81.6161 47.2898 84 46.021 84 44.0026V14.0057C84 11.979 81.6161 10.7102 79.7143 11.7236ZM27.5714 15.8182C27.5714 16.1807 27.25 16.4773 26.8571 16.4773H16.8571C16.4643 16.4773 16.1429 16.1807 16.1429 15.8182V11.8636C16.1429 11.5011 16.4643 11.2045 16.8571 11.2045H26.8571C27.25 11.2045 27.5714 11.5011 27.5714 11.8636V15.8182ZM77.5714 38.3097L68.2857 33.383V24.6253L77.5714 19.6903V38.3097Z" fill="#F2F2E6"/>
</g>
<defs>
<filter id="filter0_d_24_4032" x="0" y="0" width="88" height="66" filterUnits="userSpaceOnUse" color-interpolation-filters="sRGB">
<feFlood flood-opacity="0" result="BackgroundImageFix"/>
<feColorMatrix in="SourceAlpha" type="matrix" values="0 0 0 0 0 0 0 0 0 0 0 0 0 0 0 0 0 0 127 0" result="hardAlpha"/>
<feOffset dy="4"/>
<feGaussianBlur stdDeviation="2"/>
<feComposite in2="hardAlpha" operator="out"/>
<feColorMatrix type="matrix" values="0 0 0 0 0 0 0 0 0 0 0 0 0 0 0 0 0 0 0.25 0"/>
<feBlend mode="normal" in2="BackgroundImageFix" result="effect1_dropShadow_24_4032"/>
<feBlend mode="normal" in="SourceGraphic" in2="effect1_dropShadow_24_4032" result="shape"/>
</filter>
</defs>
</svg>
