<svg width="68" height="84" viewBox="0 0 68 84" fill="none" xmlns="http://www.w3.org/2000/svg">
<g filter="url(#filter0_d_24_2155)">
<path d="M34 52.25C43.0375 52.25 50.3636 45.8702 50.3636 38V14.25C50.3636 6.37984 43.0375 0 34 0C24.9625 0 17.6364 6.37984 17.6364 14.25V38C17.6364 45.8702 24.9625 52.25 34 52.25ZM61.2727 28.5H58.5455C57.0386 28.5 55.8182 29.5628 55.8182 30.875V38C55.8182 49.1031 44.8256 58.0123 31.8199 56.908C20.4847 55.9446 12.1818 47.071 12.1818 37.1539V30.875C12.1818 29.5628 10.9614 28.5 9.45455 28.5H6.72727C5.22045 28.5 4 29.5628 4 30.875V36.8363C4 50.1422 14.904 62.0038 29.9091 63.8059V68.875H20.3636C18.8568 68.875 17.6364 69.9378 17.6364 71.25V73.625C17.6364 74.9372 18.8568 76 20.3636 76H47.6364C49.1432 76 50.3636 74.9372 50.3636 73.625V71.25C50.3636 69.9378 49.1432 68.875 47.6364 68.875H38.0909V63.8623C52.7006 62.1166 64 51.1961 64 38V30.875C64 29.5628 62.7795 28.5 61.2727 28.5Z" fill="#F2F2E6"/>
</g>
<defs>
<filter id="filter0_d_24_2155" x="0" y="0" width="68" height="84" filterUnits="userSpaceOnUse" color-interpolation-filters="sRGB">
<feFlood flood-opacity="0" result="BackgroundImageFix"/>
<feColorMatrix in="SourceAlpha" type="matrix" values="0 0 0 0 0 0 0 0 0 0 0 0 0 0 0 0 0 0 127 0" result="hardAlpha"/>
<feOffset dy="4"/>
<feGaussianBlur stdDeviation="2"/>
<feComposite in2="hardAlpha" operator="out"/>
<feColorMatrix type="matrix" values="0 0 0 0 0 0 0 0 0 0 0 0 0 0 0 0 0 0 0.25 0"/>
<feBlend mode="normal" in2="BackgroundImageFix" result="effect1_dropShadow_24_2155"/>
<feBlend mode="normal" in="SourceGraphic" in2="effect1_dropShadow_24_2155" result="shape"/>
</filter>
</defs>
</svg>
