<svg width="10" height="38" viewBox="0 0 10 38" fill="none" xmlns="http://www.w3.org/2000/svg">
<path fill-rule="evenodd" clip-rule="evenodd" d="M9 34C9 32.3431 7.73586 31 6.17647 31H3.82353C2.26414 31 1 32.3431 1 34C1 35.6569 2.26414 37 3.82353 37H6.17647C7.73586 37 9 35.6569 9 34Z" fill="#F2F2E6" stroke="#F2F2E6" stroke-width="2" stroke-linecap="round"/>
<path fill-rule="evenodd" clip-rule="evenodd" d="M9 19C9 17.3431 7.73586 16 6.17647 16H3.82353C2.26414 16 1 17.3431 1 19C1 20.6569 2.26414 22 3.82353 22H6.17647C7.73586 22 9 20.6569 9 19Z" fill="#F2F2E6" stroke="#F2F2E6" stroke-width="2" stroke-linecap="round"/>
<path fill-rule="evenodd" clip-rule="evenodd" d="M9 4C9 2.34315 7.73586 1 6.17647 1H3.82353C2.26414 1 1 2.34315 1 4C1 5.65685 2.26414 7 3.82353 7H6.17647C7.73586 7 9 5.65685 9 4Z" fill="#F2F2E6" stroke="#F2F2E6" stroke-width="2" stroke-linecap="round"/>
</svg>
